<?xml version="1.0" encoding="UTF-8"?>
<svg xmlns="http://www.w3.org/2000/svg"
  xmlns:xlink="http://www.w3.org/1999/xlink"
  width="25pt"
  height="31pt"
  viewBox="0 0 25 31"
  version="1.1">
  <defs>
    <filter id="alpha"
      filterUnits="objectBoundingBox"
      x="0%"
      y="0%"
      width="100%"
      height="100%">
      <feColorMatrix type="matrix"
        in="SourceGraphic"
        values="0 0 0 0 1 0 0 0 0 1 0 0 0 0 1 0 0 0 1 0" />
    </filter>
    <mask id="mask0">
      <g filter="url(#alpha)">
        <rect x="0"
          y="0"
          width="25"
          height="31"
          style="fill:rgb(0%,0%,0%);fill-opacity:0.6;stroke:none;" />
      </g>
    </mask>
    <clipPath id="clip1">
      <rect x="0"
        y="0"
        width="25"
        height="31" />
    </clipPath>
    <g id="surface5"
      clip-path="url(#clip1)">
      <path style=" stroke:none;fill-rule:nonzero;fill:rgb(100%,100%,100%);fill-opacity:1;"
        d="M 14.871094 11.871094 C 14.492188 12.414062 13.894531 12.660156 13.535156 12.417969 C 13.175781 12.175781 13.191406 11.535156 13.570312 10.992188 C 13.949219 10.445312 14.546875 10.203125 14.90625 10.445312 C 15.269531 10.6875 15.253906 11.324219 14.871094 11.871094 Z M 14.871094 11.871094 " />
    </g>
    <mask id="mask1">
      <g filter="url(#alpha)">
        <rect x="0"
          y="0"
          width="25"
          height="31"
          style="fill:rgb(0%,0%,0%);fill-opacity:0.6;stroke:none;" />
      </g>
    </mask>
    <clipPath id="clip2">
      <rect x="0"
        y="0"
        width="25"
        height="31" />
    </clipPath>
    <g id="surface8"
      clip-path="url(#clip2)">
      <path style=" stroke:none;fill-rule:nonzero;fill:rgb(100%,100%,100%);fill-opacity:1;"
        d="M 7.523438 9.824219 C 7.070312 10.089844 6.558594 10.074219 6.382812 9.785156 C 6.207031 9.496094 6.429688 9.042969 6.882812 8.773438 C 7.335938 8.503906 7.847656 8.523438 8.023438 8.8125 C 8.199219 9.101562 7.976562 9.554688 7.523438 9.824219 Z M 7.523438 9.824219 " />
    </g>
    <mask id="mask2">
      <g filter="url(#alpha)">
        <rect x="0"
          y="0"
          width="25"
          height="31"
          style="fill:rgb(0%,0%,0%);fill-opacity:0.6;stroke:none;" />
      </g>
    </mask>
    <clipPath id="clip3">
      <rect x="0"
        y="0"
        width="25"
        height="31" />
    </clipPath>
    <g id="surface11"
      clip-path="url(#clip3)">
      <path style=" stroke:none;fill-rule:nonzero;fill:rgb(100%,100%,100%);fill-opacity:1;"
        d="M 12.878906 19.851562 C 13.332031 20.117188 13.839844 20.101562 14.019531 19.8125 C 14.195312 19.519531 13.972656 19.070312 13.519531 18.800781 C 13.066406 18.53125 12.554688 18.550781 12.378906 18.839844 C 12.199219 19.128906 12.421875 19.582031 12.878906 19.851562 Z M 12.878906 19.851562 " />
    </g>
    <mask id="mask3">
      <g filter="url(#alpha)">
        <rect x="0"
          y="0"
          width="25"
          height="31"
          style="fill:rgb(0%,0%,0%);fill-opacity:0.6;stroke:none;" />
      </g>
    </mask>
    <clipPath id="clip4">
      <rect x="0"
        y="0"
        width="25"
        height="31" />
    </clipPath>
    <g id="surface14"
      clip-path="url(#clip4)">
      <path style=" stroke:none;fill-rule:nonzero;fill:rgb(100%,100%,100%);fill-opacity:1;"
        d="M 1.808594 2.789062 C 1.429688 3.335938 0.832031 3.578125 0.472656 3.335938 C 0.113281 3.09375 0.128906 2.457031 0.507812 1.910156 C 0.886719 1.367188 1.484375 1.121094 1.84375 1.363281 C 2.207031 1.605469 2.191406 2.246094 1.808594 2.789062 Z M 1.808594 2.789062 " />
    </g>
  </defs>
  <g id="surface1">
    <path style=" stroke:none;fill-rule:nonzero;fill:rgb(100%,89.803922%,62.352941%);fill-opacity:1;"
      d="M 1.890625 5.375 L 12.496094 30.980469 L 23.101562 5.375 L 1.890625 5.375 " />
    <path style=" stroke:none;fill-rule:evenodd;fill:rgb(100%,85.490196%,47.058824%);fill-opacity:1;"
      d="M 23.023438 5.347656 C 23.222656 5.429688 21.019531 11.238281 18.109375 18.316406 C 15.199219 25.394531 12.679688 31.074219 12.480469 30.996094 C 12.28125 30.917969 14.484375 25.109375 17.394531 18.03125 C 20.304688 10.953125 22.824219 5.269531 23.023438 5.347656 Z M 23.023438 5.347656 " />
    <path style=" stroke:none;fill-rule:nonzero;fill:rgb(98.039216%,27.45098%,38.823529%);fill-opacity:1;"
      d="M 18.535156 12.503906 C 18.535156 14.121094 17.265625 15.433594 15.699219 15.433594 C 14.132812 15.433594 12.863281 14.121094 12.863281 12.503906 C 12.863281 10.886719 14.132812 9.578125 15.699219 9.578125 C 17.265625 9.578125 18.535156 10.886719 18.535156 12.503906 Z M 18.535156 12.503906 " />
    <use xlink:href="#surface5"
      mask="url(#mask0)" />
    <path style=" stroke:none;fill-rule:nonzero;fill:rgb(98.039216%,27.45098%,38.823529%);fill-opacity:1;"
      d="M 9.9375 11.457031 C 9.398438 12.617188 8.054688 13.148438 6.929688 12.644531 C 5.808594 12.136719 5.335938 10.789062 5.875 9.628906 C 6.410156 8.472656 7.757812 7.941406 8.878906 8.445312 C 10 8.949219 10.476562 10.300781 9.9375 11.457031 Z M 9.9375 11.457031 " />
    <use xlink:href="#surface8"
      mask="url(#mask1)" />
    <path style=" stroke:none;fill-rule:nonzero;fill:rgb(65.098039%,69.411765%,32.54902%);fill-opacity:1;"
      d="M 10.140625 15.398438 C 9.945312 15.8125 9.464844 16 9.0625 15.820312 C 8.664062 15.640625 8.492188 15.15625 8.683594 14.742188 C 8.878906 14.328125 9.359375 14.140625 9.761719 14.320312 C 10.160156 14.5 10.332031 14.984375 10.140625 15.398438 Z M 10.140625 15.398438 " />
    <path style=" stroke:none;fill-rule:nonzero;fill:rgb(98.039216%,27.45098%,38.823529%);fill-opacity:1;"
      d="M 10.464844 21.484375 C 11.003906 22.644531 12.347656 23.175781 13.46875 22.671875 C 14.59375 22.164062 15.066406 20.816406 14.527344 19.65625 C 13.988281 18.5 12.644531 17.96875 11.523438 18.472656 C 10.398438 18.976562 9.925781 20.324219 10.464844 21.484375 Z M 10.464844 21.484375 " />
    <use xlink:href="#surface11"
      mask="url(#mask2)" />
    <path style=" stroke:none;fill-rule:nonzero;fill:rgb(65.098039%,69.411765%,32.54902%);fill-opacity:1;"
      d="M 19.101562 8.804688 C 18.910156 9.21875 18.429688 9.40625 18.027344 9.226562 C 17.625 9.046875 17.457031 8.5625 17.648438 8.148438 C 17.84375 7.734375 18.324219 7.546875 18.726562 7.726562 C 19.125 7.90625 19.296875 8.390625 19.101562 8.804688 Z M 19.101562 8.804688 " />
    <path style=" stroke:none;fill-rule:nonzero;fill:rgb(65.098039%,69.411765%,32.54902%);fill-opacity:1;"
      d="M 11.960938 25.859375 C 11.769531 26.273438 11.289062 26.464844 10.886719 26.285156 C 10.484375 26.101562 10.316406 25.621094 10.507812 25.207031 C 10.703125 24.792969 11.183594 24.601562 11.585938 24.78125 C 11.984375 24.964844 12.15625 25.445312 11.960938 25.859375 Z M 11.960938 25.859375 " />
    <path style=" stroke:none;fill-rule:nonzero;fill:rgb(98.039216%,27.45098%,38.823529%);fill-opacity:1;"
      d="M 16.792969 18.003906 C 16.601562 18.417969 16.121094 18.609375 15.71875 18.425781 C 15.316406 18.246094 15.148438 17.765625 15.339844 17.351562 C 15.53125 16.933594 16.011719 16.746094 16.414062 16.925781 C 16.816406 17.105469 16.984375 17.589844 16.792969 18.003906 Z M 16.792969 18.003906 " />
    <path style=" stroke:none;fill-rule:nonzero;fill:rgb(98.039216%,27.45098%,38.823529%);fill-opacity:1;"
      d="M 13.011719 8.390625 C 12.820312 8.804688 12.339844 8.996094 11.9375 8.8125 C 11.535156 8.632812 11.367188 8.152344 11.558594 7.734375 C 11.75 7.320312 12.234375 7.132812 12.632812 7.3125 C 13.035156 7.492188 13.207031 7.976562 13.011719 8.390625 Z M 13.011719 8.390625 " />
    <path style=" stroke:none;fill-rule:nonzero;fill:rgb(98.039216%,27.45098%,38.823529%);fill-opacity:1;"
      d="M 6.082031 8.183594 C 5.890625 8.597656 5.410156 8.789062 5.007812 8.605469 C 4.605469 8.425781 4.4375 7.945312 4.628906 7.53125 C 4.820312 7.113281 5.300781 6.925781 5.703125 7.105469 C 6.105469 7.285156 6.273438 7.769531 6.082031 8.183594 Z M 6.082031 8.183594 " />
    <path style=" stroke:none;fill-rule:evenodd;fill:rgb(100%,85.490196%,47.058824%);fill-opacity:1;"
      d="M 1.421875 4.503906 C 1.617188 4.425781 4.261719 10.296875 7.320312 17.609375 C 10.378906 24.917969 12.703125 30.917969 12.503906 31 C 12.308594 31.078125 9.664062 25.210938 6.605469 17.898438 C 3.546875 10.585938 1.222656 4.585938 1.421875 4.503906 Z M 1.421875 4.503906 " />
    <path style=" stroke:none;fill-rule:evenodd;fill:rgb(100%,85.490196%,47.058824%);fill-opacity:1;"
      d="M 2.152344 6.304688 C 2.132812 6.207031 2.378906 6.058594 2.847656 5.882812 C 3.316406 5.707031 4.007812 5.507812 4.878906 5.316406 C 5.746094 5.125 6.796875 4.941406 7.976562 4.808594 C 9.152344 4.671875 10.460938 4.582031 11.839844 4.566406 C 12.019531 4.5625 12.199219 4.5625 12.382812 4.5625 C 13.824219 4.566406 15.199219 4.652344 16.4375 4.789062 C 17.679688 4.925781 18.789062 5.113281 19.710938 5.316406 C 20.632812 5.515625 21.367188 5.726562 21.863281 5.914062 C 22.363281 6.097656 22.625 6.253906 22.601562 6.359375 C 22.582031 6.460938 22.28125 6.5 21.753906 6.496094 C 21.226562 6.488281 20.476562 6.441406 19.554688 6.378906 C 18.632812 6.316406 17.539062 6.242188 16.324219 6.1875 C 15.109375 6.128906 13.777344 6.089844 12.378906 6.085938 C 12.203125 6.085938 12.023438 6.085938 11.851562 6.085938 C 10.511719 6.089844 9.242188 6.128906 8.089844 6.179688 C 6.9375 6.234375 5.898438 6.300781 5.027344 6.355469 C 4.15625 6.40625 3.449219 6.449219 2.953125 6.445312 C 2.457031 6.445312 2.171875 6.40625 2.152344 6.304688 Z M 2.152344 6.304688 " />
    <path style=" stroke:none;fill-rule:nonzero;fill:rgb(86.666667%,67.45098%,51.764706%);fill-opacity:1;"
      d="M 1.570312 0.621094 C 8.855469 -0.179688 16.136719 -0.234375 23.421875 0.621094 C 24.285156 0.722656 24.992188 1.308594 24.992188 2.167969 L 24.992188 4.757812 C 24.992188 5.617188 24.285156 6.402344 23.421875 6.304688 C 16.136719 5.496094 8.855469 5.324219 1.570312 6.304688 C 0.710938 6.421875 0 5.617188 0 4.757812 L 0 2.167969 C 0 1.308594 0.707031 0.714844 1.570312 0.621094 Z M 1.570312 0.621094 " />
    <path style=" stroke:none;fill-rule:nonzero;fill:rgb(100%,85.490196%,47.058824%);fill-opacity:1;"
      d="M 11.550781 12.601562 C 11.449219 12.820312 11.195312 12.921875 10.984375 12.824219 C 10.773438 12.730469 10.683594 12.476562 10.785156 12.257812 C 10.886719 12.039062 11.140625 11.941406 11.351562 12.035156 C 11.5625 12.128906 11.652344 12.382812 11.550781 12.601562 Z M 11.550781 12.601562 " />
    <path style=" stroke:none;fill-rule:nonzero;fill:rgb(100%,85.490196%,47.058824%);fill-opacity:1;"
      d="M 19.914062 9.941406 C 19.8125 10.160156 19.558594 10.257812 19.347656 10.164062 C 19.136719 10.070312 19.046875 9.816406 19.148438 9.597656 C 19.25 9.378906 19.503906 9.277344 19.714844 9.375 C 19.925781 9.46875 20.015625 9.722656 19.914062 9.941406 Z M 19.914062 9.941406 " />
    <path style=" stroke:none;fill-rule:nonzero;fill:rgb(100%,85.490196%,47.058824%);fill-opacity:1;"
      d="M 12.355469 17.074219 C 12.253906 17.292969 12 17.390625 11.789062 17.296875 C 11.574219 17.203125 11.488281 16.949219 11.589844 16.730469 C 11.691406 16.511719 11.941406 16.410156 12.15625 16.507812 C 12.367188 16.601562 12.453125 16.855469 12.355469 17.074219 Z M 12.355469 17.074219 " />
    <path style=" stroke:none;fill-rule:nonzero;fill:rgb(100%,85.490196%,47.058824%);fill-opacity:1;"
      d="M 8.992188 18.003906 C 8.890625 18.222656 8.636719 18.320312 8.425781 18.226562 C 8.214844 18.132812 8.125 17.878906 8.226562 17.660156 C 8.328125 17.441406 8.582031 17.339844 8.792969 17.4375 C 9.003906 17.53125 9.09375 17.785156 8.992188 18.003906 Z M 8.992188 18.003906 " />
    <path style=" stroke:none;fill-rule:nonzero;fill:rgb(100%,85.490196%,47.058824%);fill-opacity:1;"
      d="M 12.878906 24.929688 C 12.777344 25.148438 12.523438 25.25 12.3125 25.152344 C 12.101562 25.058594 12.011719 24.804688 12.113281 24.585938 C 12.214844 24.367188 12.46875 24.265625 12.679688 24.363281 C 12.890625 24.457031 12.980469 24.710938 12.878906 24.929688 Z M 12.878906 24.929688 " />
    <use xlink:href="#surface14"
      mask="url(#mask3)" />
  </g>
</svg>
